<svg id="Layer_1" xmlns="http://www.w3.org/2000/svg" viewBox="0 0 267.3 44.9" fill="#212490"><path d="M259.5 5.9h1.9c.5 0 .9-.1 1.1-.4.2-.2.4-.5.4-.9s-.1-.7-.4-.8c-.3-.2-.6-.3-1-.3h-2v2.4zm4.5 3.9h-1.2l-1.4-3.1h-2v3.1h-1.1V2.6h3.1c.8 0 1.4.2 1.9.6.4.4.6.9.6 1.4 0 .4-.1.7-.3 1.1-.2.4-.6.6-1.1.7l1.5 3.4zm2.4-3.6c0-1.5-.5-2.7-1.6-3.8-1-1-2.3-1.6-3.8-1.6s-2.7.5-3.8 1.6c-1 1-1.6 2.3-1.6 3.8s.5 2.7 1.6 3.8c1 1 2.3 1.6 3.8 1.6s2.7-.5 3.8-1.6c1.1-1.1 1.6-2.3 1.6-3.8zm.9 0c0 1.7-.6 3.2-1.8 4.4-1.2 1.2-2.7 1.8-4.4 1.8-1.7 0-3.2-.6-4.4-1.8-1.2-1.2-1.8-2.7-1.8-4.4 0-1.7.6-3.2 1.8-4.4 1.2-1.2 2.7-1.8 4.4-1.8 1.7 0 3.2.6 4.4 1.8 1.2 1.3 1.8 2.7 1.8 4.4zM210.1 21.4l-15.8 23.5h17.2l8.4-11.8h21.9l8.2 11.8h17.3L237.1 0h-17.2l14.2 21.4zM134.4 0h17.3l19.2 29.4L190.1 0h17.4l-30.2 44.9h-12.8zM0 44.9h15.4V20.7l34.5 24.2h11.6V0H45.9v24.4L11.7 0H0zM74.1 11.7h51.4L117.7 0H74.1z"/><path d="M74.1 28.3h62.5c-2.6-3.9-5.2-7.8-7.9-11.7H74.1v11.7z" fill-rule="evenodd" clip-rule="evenodd" /><path d="M74.1 44.9h73.7l-7.9-11.7H74.1z"/></svg>